# xmcd
#
# Track frame offsets:
#	150
#	18825
#	30488
#	47100
#	59325
#	71925
#	86663
#	99375
#	117675
#	134325
#	147188
#	160875
#	175725
#	189938
#	203588
#	221588
#
# Disc length: 3109 seconds
#
# Revision: 0
# Processed by: cddbd v1.5.2PL0 Copyright (c) Steve Scherf et al.
# Submitted via: audiograbber 1.83.01
#
DISCID=e20c2310
DTITLE=Acker Bilk - Stranger on the Shore
DYEAR=1900
DGENRE=Instrumental
TTITLE0=Hey Jude
TTITLE1=Let It Be
TTITLE2=The First Time Ever Y Saw Your Face
TTITLE3=Ramblin' Rose
TTITLE4=If I Give My Heart To You
TTITLE5=Never My Love
TTITLE6=Stranger on the Shore
TTITLE7=I Can't Stop Loving You
TTITLE8=My Way
TTITLE9=Jean
TTITLE10=We've Only Just Begun
TTITLE11=The Rose
TTITLE12=Eres Tu (Touch The Wind)
TTITLE13=Morning Has Broken
TTITLE14=Your The Best Thing That Ever Happened To Me
TTITLE15=I left My heart In San Francisco
EXTD=
EXTT0=
EXTT1=
EXTT2=
EXTT3=
EXTT4=
EXTT5=
EXTT6=
EXTT7=
EXTT8=
EXTT9=
EXTT10=
EXTT11=
EXTT12=
EXTT13=
EXTT14=
EXTT15=
PLAYORDER=
